<svg width="224" height="177" viewBox="0 0 224 177" fill="none" xmlns="http://www.w3.org/2000/svg">
<path opacity="0.8" d="M4.608 170H6.272V165.696L10.64 159.008H8.768L5.44 164.16L2.16 159.008H0.208L4.608 165.696V170ZM14.1033 170.192C16.4553 170.192 18.4392 168.208 18.4392 165.856C18.4392 163.504 16.4553 161.536 14.1033 161.536C11.7353 161.536 9.73525 163.504 9.73525 165.856C9.73525 168.208 11.7353 170.192 14.1033 170.192ZM14.1033 168.816C12.5833 168.816 11.3193 167.472 11.3193 165.856C11.3193 164.256 12.5833 162.912 14.1033 162.912C15.5913 162.912 16.8553 164.256 16.8553 165.856C16.8553 167.472 15.5913 168.816 14.1033 168.816ZM25.9886 161.728V167.088C25.8606 168.064 24.8686 168.816 23.7166 168.816C22.5966 168.816 21.8126 167.952 21.8126 166.72V161.728H20.2606V166.992C20.2606 168.864 21.5406 170.192 23.3646 170.192C24.4846 170.192 25.4926 169.616 25.9886 168.8V170H27.5726V161.728H25.9886ZM40.8169 158.816V163.152C40.1769 162.144 39.1529 161.536 37.8729 161.536C35.6969 161.536 34.0649 163.328 34.0649 165.856C34.0649 168.4 35.6969 170.192 37.8729 170.192C39.1529 170.192 40.1769 169.584 40.8169 168.56V170H42.3849V158.816H40.8169ZM38.2569 168.816C36.7369 168.816 35.6649 167.584 35.6649 165.856C35.6649 164.128 36.7369 162.912 38.2569 162.912C39.7449 162.912 40.8169 164.128 40.8169 165.856C40.8169 167.584 39.7449 168.816 38.2569 168.816ZM48.6814 170.192C51.0334 170.192 53.0174 168.208 53.0174 165.856C53.0174 163.504 51.0334 161.536 48.6814 161.536C46.3134 161.536 44.3134 163.504 44.3134 165.856C44.3134 168.208 46.3134 170.192 48.6814 170.192ZM48.6814 168.816C47.1614 168.816 45.8974 167.472 45.8974 165.856C45.8974 164.256 47.1614 162.912 48.6814 162.912C50.1694 162.912 51.4334 164.256 51.4334 165.856C51.4334 167.472 50.1694 168.816 48.6814 168.816ZM59.0788 161.536C57.9588 161.536 56.9508 162.112 56.4548 162.928V161.728H54.8708V170H56.4548V164.64C56.5828 163.664 57.5748 162.912 58.7268 162.912C59.8468 162.912 60.6308 163.776 60.6308 165.008V170H62.1828V164.736C62.1828 162.864 60.9028 161.536 59.0788 161.536ZM64.8969 163.328H65.6649C65.8729 162.304 66.1769 160.832 66.1769 160.016C66.1769 159.52 65.7609 159.104 65.2809 159.104C64.8009 159.104 64.3849 159.52 64.3849 160.016C64.3849 160.832 64.6889 162.304 64.8969 163.328ZM72.2896 168.512C72.1136 168.688 71.7936 168.816 71.4416 168.816C70.9776 168.816 70.5936 168.4 70.5936 167.824V163.072H72.5456V161.728H70.5936V159.456H69.0416V161.728H67.7936V163.072H69.0416V167.936C69.0416 169.264 69.9376 170.192 71.2176 170.192C71.8096 170.192 72.4176 169.968 72.8656 169.6L72.2896 168.512ZM83.2663 161.536C82.1302 161.536 81.1223 162.128 80.6263 162.96V158.816H79.0583V170H80.6263V164.864C80.6263 163.792 81.6663 162.912 82.9143 162.912C84.0343 162.912 84.8183 163.776 84.8183 165.008V170H86.3703V164.736C86.3703 162.864 85.0903 161.536 83.2663 161.536ZM92.1084 161.536C91.1964 161.536 90.1564 161.776 88.9724 162.368L89.5484 163.536C90.2684 163.168 91.0684 162.848 91.8844 162.848C93.5324 162.848 94.0124 163.952 94.0124 164.992V165.248C93.2124 164.976 92.3324 164.8 91.5164 164.8C89.6924 164.8 88.2044 165.904 88.2044 167.552C88.2044 169.168 89.5004 170.192 91.2604 170.192C92.2684 170.192 93.4044 169.728 94.0124 168.864V170H95.5644V164.992C95.5644 162.944 94.3324 161.536 92.1084 161.536ZM91.5644 168.944C90.5244 168.944 89.7244 168.4 89.7244 167.504C89.7244 166.608 90.6524 165.984 91.7564 165.984C92.5724 165.984 93.3404 166.096 94.0124 166.304V167.408C93.7404 168.432 92.5884 168.944 91.5644 168.944ZM100.607 170H102.095L105.583 161.728H103.871L101.343 168.16L98.7671 161.728H97.0551L100.607 170ZM110.335 168.784C108.911 168.784 107.903 167.792 107.695 166.416H114.207C114.207 163.456 112.751 161.536 110.223 161.536C107.935 161.536 106.095 163.36 106.095 165.84C106.095 168.384 108.047 170.192 110.351 170.192C111.519 170.192 112.959 169.696 113.695 168.912L112.703 167.888C112.207 168.4 111.199 168.784 110.335 168.784ZM110.287 162.944C111.711 162.944 112.495 163.872 112.671 165.152H107.711C107.967 163.808 109.007 162.944 110.287 162.944ZM124.093 161.536C123.181 161.536 122.141 161.776 120.957 162.368L121.533 163.536C122.253 163.168 123.053 162.848 123.869 162.848C125.517 162.848 125.997 163.952 125.997 164.992V165.248C125.197 164.976 124.317 164.8 123.501 164.8C121.677 164.8 120.189 165.904 120.189 167.552C120.189 169.168 121.485 170.192 123.245 170.192C124.253 170.192 125.389 169.728 125.997 168.864V170H127.549V164.992C127.549 162.944 126.317 161.536 124.093 161.536ZM123.549 168.944C122.509 168.944 121.709 168.4 121.709 167.504C121.709 166.608 122.637 165.984 123.741 165.984C124.557 165.984 125.325 166.096 125.997 166.304V167.408C125.725 168.432 124.573 168.944 123.549 168.944ZM139.01 161.536C137.73 161.536 136.706 162.144 136.066 163.152V161.728H134.498V172.752H136.066V168.56C136.706 169.584 137.73 170.192 139.01 170.192C141.186 170.192 142.818 168.4 142.818 165.856C142.818 163.328 141.186 161.536 139.01 161.536ZM138.626 168.816C137.138 168.816 136.066 167.584 136.066 165.856C136.066 164.128 137.138 162.912 138.626 162.912C140.146 162.912 141.218 164.128 141.218 165.856C141.218 167.584 140.146 168.816 138.626 168.816ZM146.394 163.312V161.728H144.81V170H146.394V165.296C146.538 163.856 147.754 162.912 149.466 162.912V161.536C148.042 161.536 146.922 162.224 146.394 163.312ZM154.681 170.192C157.033 170.192 159.017 168.208 159.017 165.856C159.017 163.504 157.033 161.536 154.681 161.536C152.313 161.536 150.313 163.504 150.313 165.856C150.313 168.208 152.313 170.192 154.681 170.192ZM154.681 168.816C153.161 168.816 151.897 167.472 151.897 165.856C151.897 164.256 153.161 162.912 154.681 162.912C156.169 162.912 157.433 164.256 157.433 165.856C157.433 167.472 156.169 168.816 154.681 168.816ZM167.239 158.816V163.152C166.599 162.144 165.575 161.536 164.295 161.536C162.119 161.536 160.487 163.328 160.487 165.856C160.487 168.4 162.119 170.192 164.295 170.192C165.575 170.192 166.599 169.584 167.239 168.56V170H168.807V158.816H167.239ZM164.679 168.816C163.159 168.816 162.087 167.584 162.087 165.856C162.087 164.128 163.159 162.912 164.679 162.912C166.167 162.912 167.239 164.128 167.239 165.856C167.239 167.584 166.167 168.816 164.679 168.816ZM176.879 161.728V167.088C176.751 168.064 175.759 168.816 174.607 168.816C173.487 168.816 172.703 167.952 172.703 166.72V161.728H171.151V166.992C171.151 168.864 172.431 170.192 174.255 170.192C175.375 170.192 176.383 169.616 176.879 168.8V170H178.463V161.728H176.879ZM184.665 170.192C185.897 170.192 186.969 169.68 187.769 168.864L186.697 167.888C186.185 168.464 185.449 168.816 184.681 168.816C183.161 168.816 181.913 167.472 181.913 165.856C181.913 164.256 183.161 162.912 184.665 162.912C185.433 162.912 186.153 163.248 186.649 163.808L187.721 162.816C186.937 162.032 185.865 161.536 184.681 161.536C182.313 161.536 180.313 163.504 180.313 165.856C180.313 168.208 182.313 170.192 184.665 170.192ZM193.337 168.512C193.161 168.688 192.841 168.816 192.489 168.816C192.025 168.816 191.641 168.4 191.641 167.824V163.072H193.593V161.728H191.641V159.456H190.089V161.728H188.84V163.072H190.089V167.936C190.089 169.264 190.985 170.192 192.265 170.192C192.857 170.192 193.465 169.968 193.913 169.6L193.337 168.512ZM201.561 172.88C202.745 172.864 203.625 172.24 204.217 170.752L207.865 161.728H206.217L203.705 168.256L201.049 161.728H199.353L202.905 170.048L202.489 170.928C202.217 171.408 201.865 171.568 201.353 171.568C201.033 171.568 200.665 171.488 200.345 171.312L199.993 172.528C200.425 172.752 201.001 172.88 201.561 172.88ZM213.053 168.784C211.629 168.784 210.621 167.792 210.413 166.416H216.925C216.925 163.456 215.469 161.536 212.941 161.536C210.653 161.536 208.813 163.36 208.813 165.84C208.813 168.384 210.765 170.192 213.069 170.192C214.237 170.192 215.677 169.696 216.413 168.912L215.421 167.888C214.925 168.4 213.917 168.784 213.053 168.784ZM213.005 162.944C214.429 162.944 215.213 163.872 215.389 165.152H210.429C210.685 163.808 211.725 162.944 213.005 162.944ZM222.633 168.512C222.457 168.688 222.137 168.816 221.785 168.816C221.321 168.816 220.937 168.4 220.937 167.824V163.072H222.889V161.728H220.937V159.456H219.385V161.728H218.137V163.072H219.385V167.936C219.385 169.264 220.281 170.192 221.561 170.192C222.153 170.192 222.761 169.968 223.209 169.6L222.633 168.512Z" fill="#222222"/>
<g opacity="0.8" clip-path="url(#clip0_530_80)">
<path d="M121.428 84.6091C121.018 84.9913 120.525 85.2738 119.988 85.4345C119.451 85.5952 118.883 85.6298 118.33 85.5355C117.777 85.4413 117.253 85.2208 116.8 84.8912C116.346 84.5617 115.976 84.1321 115.716 83.6359L112.352 77.1949L113.69 74.3032L120.904 78.9059C121.371 79.2037 121.763 79.6039 122.051 80.076C122.339 80.548 122.515 81.0794 122.566 81.6296C122.616 82.1798 122.54 82.7343 122.343 83.2507C122.146 83.767 121.833 84.2317 121.428 84.6091Z" fill="#FFB8B8"/>
<path d="M111.335 78.1185L83.7516 63.8356C83.6243 63.7697 83.5126 63.6776 83.4239 63.5653C83.3352 63.4531 83.2714 63.3233 83.2369 63.1846L77.2534 39.142C76.9062 37.747 77.0937 36.2729 77.7791 35.0084C78.4645 33.7439 79.5986 32.7799 80.9594 32.3051L82.4008 31.8021C82.7222 31.69 83.0632 31.6448 83.4028 31.6694C83.7423 31.6939 84.0732 31.7877 84.375 31.945C84.6767 32.1022 84.9429 32.3195 85.157 32.5834C85.3711 32.8473 85.5285 33.1522 85.6197 33.4793L91.5173 54.6464C91.5725 54.8445 91.6872 55.021 91.846 55.1522L114.32 73.7173C114.514 73.8774 114.641 74.104 114.676 74.3526C114.711 74.6012 114.651 74.8538 114.509 75.061L112.634 77.7935C112.494 77.9965 112.285 78.1417 112.046 78.2015C111.807 78.2614 111.554 78.2319 111.335 78.1185Z" fill="#DB3022"/>
<path d="M58.5805 102.998L46.7554 100.106L47.4247 93.4332L59.2499 98.7718L58.5805 102.998Z" fill="#FFB8B8"/>
<path d="M93.1635 40.7145C79.7854 33.6926 65.7816 30.1663 50.7715 32.2617C55.296 24.6167 58.6565 17.5485 58.4318 12.2572C58.285 8.79993 59.7411 5.44386 62.5303 3.38425C64.7168 1.76817 67.3668 0.896279 70.0886 0.89744H70.0886C72.519 -0.183011 75.2727 -0.29216 77.7816 0.592509C79.9543 1.35742 81.5943 3.10131 82.4735 5.22475C82.9866 6.4642 84.0913 7.55001 85.6939 8.50653C87.1783 9.36277 88.3877 10.6224 89.1808 12.1384C90.2363 14.2329 90.309 16.3413 88.9256 18.4703C94.1058 23.896 94.1203 32.0488 93.1635 40.7145Z" fill="#2F2E41"/>
<path d="M90.181 113.596C89.2933 114.658 88.0953 115.417 86.754 115.767C85.4127 116.118 83.9952 116.042 82.6992 115.551C72.8608 116.458 64.888 109.554 56.3497 102.998L58.3577 97.6595L41.624 85.8701L48.7637 81.4213L64.1587 75.6378L90.0625 104.958C91.1127 106.147 91.7019 107.671 91.7236 109.255C91.7454 110.839 91.1982 112.379 90.181 113.596Z" fill="#2F2E41"/>
<path d="M74.199 23.1416C79.3744 23.1416 83.5699 18.9588 83.5699 13.799C83.5699 8.6393 79.3744 4.4565 74.199 4.4565C69.0236 4.4565 64.8281 8.6393 64.8281 13.799C64.8281 18.9588 69.0236 23.1416 74.199 23.1416Z" fill="#FFB8B8"/>
<path d="M78.6612 34.0413L67.7285 35.1535C68.3151 28.7806 68.5461 22.9 67.7285 18.4703H78.6612C76.5849 25.523 76.7671 30.5499 78.6612 34.0413Z" fill="#FFB8B8"/>
<path d="M64.8278 68.9645L46.9785 59.3996C53.4159 51.9595 56.1382 40.3449 57.405 27.0948C57.6192 24.8542 59.3382 24.9306 61.5926 24.8099C63.9721 24.6826 66.3109 23.4268 68.3977 24.6987L74.4218 31.3719L77.3223 28.2578L83.0217 30.693C83.6057 30.9425 84.079 31.3949 84.3537 31.9661C84.6284 32.5373 84.6858 33.1885 84.5152 33.7987C84.4092 44.5164 83.107 53.9357 77.5454 58.7322L72.86 63.6259L64.8278 68.9645Z" fill="#DB3022"/>
<path opacity="0.2" d="M71.9675 107.002C71.9675 107.002 63.4538 99.088 57.6704 99.486L71.9675 107.002Z" fill="black"/>
<path d="M58.2678 100.325L56.2477 112.295L49.5229 112.122L52.222 99.5504L58.2678 100.325Z" fill="#FFB8B8"/>
<path d="M63.0199 122.998C62.5922 123.011 62.1655 122.95 61.759 122.816L50.9068 121.907C49.7684 121.358 48.8748 120.407 48.3991 119.238C47.9233 118.07 47.8993 116.767 48.3315 115.582L49.5442 111.34C51.7962 112.517 54.1391 112.35 56.3493 110.561L65.9444 117.265C66.3167 117.808 66.5356 118.441 66.5782 119.097C66.6208 119.754 66.4854 120.409 66.1864 120.996C65.8873 121.582 65.4356 122.077 64.8784 122.43C64.3213 122.782 63.6794 122.978 63.0199 122.998Z" fill="#2F2E41"/>
<path d="M36.1223 106.905C36.1093 106.479 36.1711 106.053 36.3049 105.648L37.2171 94.8285C37.768 93.6935 38.7218 92.8027 39.8937 92.3284C41.0655 91.8541 42.3722 91.83 43.5609 92.261L47.8163 93.4701C46.6353 95.7152 46.8031 98.0511 48.5972 100.255L41.8731 109.821C41.3284 110.192 40.6936 110.41 40.0352 110.453C39.3768 110.495 38.7191 110.36 38.131 110.062C37.5429 109.764 37.0462 109.313 36.6927 108.758C36.3393 108.203 36.1423 107.563 36.1223 106.905Z" fill="#2F2E41"/>
<path d="M58.8038 100.996L50.9948 100.551L51.2179 86.9823L45.9081 87.2877C38.116 87.7359 31.7856 80.8369 33.1984 73.184C33.2275 73.0264 33.2595 72.8685 33.2944 72.7102C34.122 69.1143 36.2797 65.962 39.3365 63.8828L47.4249 58.2874L54.0068 61.0679L59.2219 58.2766C60.6598 57.6692 62.2308 57.4431 63.7822 57.6202C65.3336 57.7973 66.8127 58.3716 68.0756 59.2873C69.6998 60.465 70.885 62.1479 71.4444 64.0709C72.0038 65.994 71.9057 68.0479 71.1655 69.9093L58.8038 100.996Z" fill="#2F2E41"/>
<path opacity="0.2" d="M54.3414 75.6378C54.3414 75.6378 50.7716 82.756 51.2178 86.9824L54.3414 75.6378Z" fill="black"/>
<path opacity="0.2" d="M67.6167 39.936L69.5714 48.8786L81.4499 59.066L70.9634 48.3888L67.6167 39.936Z" fill="black"/>
<path opacity="0.2" d="M56.6841 44.1624L60.2539 58.6211L70.7404 62.4026L60.9233 57.5089L56.6841 44.1624Z" fill="black"/>
<path d="M85.4665 14.3552C78.56 11.1873 70.7517 10.2841 63.8242 13.6879L64.7167 5.67997L79.8886 3.23311L85.4665 14.3552Z" fill="#2F2E41"/>
<path d="M95.5062 78.4183C95.2104 78.4187 94.9269 78.536 94.7178 78.7445C94.5086 78.953 94.391 79.2357 94.3906 79.5305V120.905C94.391 121.199 94.5086 121.482 94.7178 121.691C94.9269 121.899 95.2104 122.016 95.5062 122.017H189.884C190.18 122.016 190.464 121.899 190.673 121.691C190.882 121.482 190.999 121.199 191 120.905V79.5305C190.999 79.2357 190.882 78.953 190.673 78.7445C190.464 78.536 190.18 78.4187 189.884 78.4183H95.5062Z" fill="#E6E6E6"/>
<path d="M96.6217 79.4193C96.2963 79.4197 95.9844 79.5487 95.7544 79.7781C95.5244 80.0074 95.3949 80.3184 95.3945 80.6427V119.792C95.3949 120.117 95.5244 120.428 95.7544 120.657C95.9844 120.886 96.2963 121.015 96.6217 121.016H188.769C189.094 121.015 189.406 120.886 189.636 120.657C189.866 120.428 189.995 120.117 189.996 119.792V80.6427C189.995 80.3184 189.866 80.0074 189.636 79.7781C189.406 79.5487 189.094 79.4197 188.769 79.4193H96.6217Z" fill="white"/>
<path d="M98.6702 77.9359C98.2605 78.318 97.7676 78.6005 97.2302 78.7612C96.6927 78.9219 96.1253 78.9565 95.5722 78.8623C95.0191 78.7681 94.4954 78.5475 94.042 78.218C93.5886 77.8885 93.2178 77.4588 92.9586 76.9627L89.5938 70.5217L90.9324 67.6299L98.146 72.2326C98.6128 72.5305 99.0052 72.9307 99.2931 73.4027C99.5811 73.8748 99.7571 74.4062 99.8077 74.9564C99.8582 75.5066 99.7821 76.061 99.5849 76.5774C99.3878 77.0938 99.0749 77.5584 98.6702 77.9359Z" fill="#FFB8B8"/>
<path d="M88.5771 71.4453L60.9937 57.1623C60.8665 57.0965 60.7548 57.0043 60.6661 56.8921C60.5774 56.7798 60.5136 56.65 60.4791 56.5113L54.4956 32.4688C54.1484 31.0737 54.3358 29.5997 55.0213 28.3352C55.7067 27.0707 56.8408 26.1067 58.2016 25.6318L59.643 25.1289C59.9644 25.0167 60.3054 24.9715 60.645 24.9961C60.9845 25.0207 61.3154 25.1145 61.6172 25.2717C61.9189 25.4289 62.1851 25.6462 62.3992 25.9101C62.6133 26.1741 62.7707 26.479 62.8619 26.806L68.7594 47.9732C68.8146 48.1713 68.9293 48.3478 69.0881 48.479L91.5622 67.044C91.7561 67.2042 91.8829 67.4308 91.9179 67.6794C91.9529 67.928 91.8935 68.1806 91.7513 68.3878L89.876 71.1203C89.7367 71.3233 89.5276 71.4685 89.2884 71.5283C89.0491 71.5882 88.7961 71.5587 88.5771 71.4453Z" fill="#DB3022"/>
<path d="M112.423 98.7551C116.027 98.7551 118.948 95.8428 118.948 92.2502C118.948 88.6577 116.027 85.7453 112.423 85.7453C108.82 85.7453 105.898 88.6577 105.898 92.2502C105.898 95.8428 108.82 98.7551 112.423 98.7551Z" fill="#DB3022"/>
<path d="M127.492 87.9136C127.204 87.914 126.928 88.0284 126.724 88.2317C126.521 88.435 126.406 88.7105 126.406 88.9978C126.406 89.285 126.521 89.5606 126.724 89.7639C126.928 89.9671 127.204 90.0815 127.492 90.0819H178.757C179.045 90.0819 179.322 89.9677 179.526 89.7644C179.73 89.5611 179.844 89.2853 179.844 88.9978C179.844 88.7102 179.73 88.4345 179.526 88.2311C179.322 88.0278 179.045 87.9136 178.757 87.9136H127.492Z" fill="#E6E6E6"/>
<path d="M127.492 94.4185C127.203 94.4185 126.927 94.5327 126.723 94.736C126.519 94.9394 126.404 95.2151 126.404 95.5027C126.404 95.7902 126.519 96.066 126.723 96.2693C126.927 96.4726 127.203 96.5868 127.492 96.5868H149.551C149.694 96.587 149.836 96.5591 149.968 96.5047C150.1 96.4504 150.22 96.3705 150.321 96.2698C150.422 96.1691 150.503 96.0495 150.557 95.9179C150.612 95.7863 150.64 95.6452 150.64 95.5027C150.64 95.3602 150.612 95.219 150.557 95.0874C150.503 94.9558 150.422 94.8362 150.321 94.7355C150.22 94.6348 150.1 94.555 149.968 94.5006C149.836 94.4462 149.694 94.4183 149.551 94.4185H127.492Z" fill="#E6E6E6"/>
<path d="M107.418 104.818C106.591 104.818 105.918 105.304 105.918 105.902C105.918 106.5 106.591 106.986 107.418 106.986H178.148C178.975 106.986 179.648 106.5 179.648 105.902C179.648 105.304 178.975 104.818 178.148 104.818H107.418Z" fill="#E6E6E6"/>
<path d="M107.418 111.323C106.591 111.323 105.918 111.809 105.918 112.407C105.918 113.005 106.591 113.491 107.418 113.491H178.148C178.975 113.491 179.648 113.005 179.648 112.407C179.648 111.809 178.975 111.323 178.148 111.323H107.418Z" fill="#E6E6E6"/>
</g>
<defs>
<clipPath id="clip0_530_80">
<rect width="158" height="123" fill="white" transform="translate(33)"/>
</clipPath>
</defs>
</svg>
